<?xml version="1.0" encoding="UTF-8"?>
<svg version="1.1" xmlns="http://www.w3.org/2000/svg" width="1024" height="1024">
<path d="M0 0 C337.92 0 675.84 0 1024 0 C1024 337.92 1024 675.84 1024 1024 C686.08 1024 348.16 1024 0 1024 C0 686.08 0 348.16 0 0 Z " fill="#FAFAFA" transform="translate(0,0)"/>
<path d="M0 0 C4.86756922 4.14369076 9.62158141 8.30320217 14.06274414 12.90844727 C15.67306153 14.52285176 17.3600361 15.98017579 19.10180664 17.45141602 C27.97408682 25.10831535 36.45861554 33.63067936 44.01586914 42.58813477 C45.90372071 44.80612786 47.87883457 46.93383757 49.85180664 49.07641602 C53.86187366 53.5200038 57.57400776 58.13750186 61.23803711 62.86499023 C64.21486671 66.70258984 67.2535778 70.4780977 70.34594727 74.22314453 C77.85943963 83.33719073 84.79440512 92.80240335 91.60180664 102.45141602 C92.39988168 103.57128041 93.19804961 104.69107861 93.99633789 105.81079102 C118.78830892 141.01092286 118.78830892 141.01092286 123.60180664 155.45141602 C125.95737648 149.63177288 125.45957365 146.07517394 123.53930664 140.20141602 C121.78655963 133.19042797 121.55630524 126.70640411 125.18774414 120.27954102 C127.74440284 116.97424744 130.98584038 114.51768245 134.60180664 112.45141602 C135.26180664 112.45141602 135.92180664 112.45141602 136.60180664 112.45141602 C114.91069873 41.98456943 114.91069873 41.98456943 69.60180664 -13.54858398 C66.55010741 -14.94695756 63.46735571 -16.13034627 60.32446289 -17.30639648 C56.32394302 -19.1315978 53.57154404 -21.59103821 51.60180664 -25.54858398 C51.65977106 -28.21494746 51.69463855 -29.6414159 53.60180664 -31.54858398 C60.59697309 -31.54858398 63.79045331 -28.30607888 68.60180664 -23.54858398 C69.31336914 -22.88600586 70.02493164 -22.22342773 70.75805664 -21.54077148 C102.75109362 8.98779549 120.64210977 54.47226 135.45336914 95.16625977 C135.8666748 96.3005542 136.27998047 97.43484863 136.70581055 98.60351562 C137.60180664 101.45141602 137.60180664 101.45141602 137.60180664 104.45141602 C138.26180664 104.45141602 138.92180664 104.45141602 139.60180664 104.45141602 C139.94211914 103.24485352 139.94211914 103.24485352 140.28930664 102.01391602 C140.72243164 101.16829102 141.15555664 100.32266602 141.60180664 99.45141602 C144.22680664 98.63891602 144.22680664 98.63891602 146.60180664 98.45141602 C148.58180664 101.42141602 148.58180664 101.42141602 150.60180664 104.45141602 C154.11644613 96.18258183 157.39588525 87.83716775 160.59207153 79.44134521 C174.7984314 42.23146768 192.03827309 6.68230887 219.60180664 -22.54858398 C220.2527832 -23.24081055 220.90375977 -23.93303711 221.57446289 -24.64624023 C228.01143911 -31.30188232 228.01143911 -31.30188232 233.22680664 -31.79858398 C235.60180664 -31.54858398 235.60180664 -31.54858398 237.60180664 -29.54858398 C237.60180664 -25.50186823 236.9351784 -23.90759972 234.16430664 -20.92358398 C231.53821627 -18.93051301 228.95231091 -17.88253981 225.85180664 -16.79858398 C207.65482946 -9.8018327 196.71060035 13.09239311 187.84106445 29.2121582 C186.70931611 31.25715344 185.5475816 33.28109068 184.37524414 35.30297852 C173.47494256 54.50638899 166.02010821 75.91575545 158.72680664 96.70141602 C158.29182861 97.92634766 157.85685059 99.1512793 157.40869141 100.41333008 C157.02124756 101.54480469 156.63380371 102.6762793 156.23461914 103.84204102 C155.7224585 105.32752441 155.7224585 105.32752441 155.19995117 106.84301758 C154.57743435 109.5576991 154.56473941 110.89407426 155.60180664 113.45141602 C157.51893737 115.33483895 159.57602195 116.91763525 161.69165039 118.57250977 C164.84978777 121.67898028 165.52017929 124.42507212 165.86743164 128.79125977 C165.86227539 129.97848633 165.85711914 131.16571289 165.85180664 132.38891602 C165.85696289 133.57356445 165.86211914 134.75821289 165.86743164 135.97875977 C165.60065593 139.4664599 164.77506346 142.17549893 163.60180664 145.45141602 C163.37990207 149.66760283 163.72388324 153.34273452 164.60180664 157.45141602 C164.96306641 156.76329834 165.32432617 156.07518066 165.6965332 155.36621094 C187.03482728 114.86321717 213.53661909 77.77846821 244.37133789 43.92797852 C245.60709516 42.55587675 246.83601082 41.17716057 248.03515625 39.77294922 C252.80357999 34.20896243 257.89951205 29.00050943 263.08984375 23.83300781 C264.53705049 22.3911638 265.9788269 20.94404486 267.42016602 19.49633789 C272.64475035 14.26800464 277.98465424 9.25465285 283.60180664 4.45141602 C285.20949037 2.99696084 286.81420379 1.53920707 288.41430664 0.07641602 C303.71226706 -13.6779249 320.25855866 -26.48085336 337.60180664 -37.54858398 C338.82172018 -38.35542125 340.04038426 -39.16414959 341.25805664 -39.97436523 C353.40456759 -48.01184445 365.94668026 -55.34496732 378.60180664 -62.54858398 C379.31578613 -62.95737793 380.02976562 -63.36617187 380.76538086 -63.78735352 C411.30423242 -81.15381716 452.66867355 -98.22603133 488.60180664 -90.86499023 C497.89700414 -88.22331264 506.12020477 -83.6926782 511.60180664 -75.54858398 C516.75876767 -66.23551949 517.00343653 -56.9285377 514.21191406 -46.74658203 C510.9665521 -36.05208192 505.80208454 -26.31069788 500.40258789 -16.57202148 C489.66364373 2.9330238 480.39534576 25.08876086 477.08618164 47.23266602 C476.96133392 48.04527893 476.83648621 48.85789185 476.70785522 49.69512939 C475.42213729 58.27799083 474.47465107 66.89600194 473.52545166 75.5211792 C469.9723472 107.40907539 465.31291716 142.84771295 442.60180664 167.45141602 C442.03461914 168.07274414 441.46743164 168.69407227 440.88305664 169.33422852 C424.76566702 185.09816661 399.85746114 188.19708736 378.60180664 190.45141602 C377.33530273 190.59824829 377.33530273 190.59824829 376.04321289 190.74804688 C370.16704257 191.40050836 364.38607439 191.57412015 358.47680664 191.51391602 C357.61571289 191.5094043 356.75461914 191.50489258 355.86743164 191.50024414 C353.77885879 191.48864096 351.69032257 191.47071442 349.60180664 191.45141602 C349.60180664 192.11141602 349.60180664 192.77141602 349.60180664 193.45141602 C350.81223633 193.57709961 350.81223633 193.57709961 352.04711914 193.70532227 C356.5526369 194.65098588 360.34430777 196.39863472 364.47680664 198.38891602 C365.30744629 198.78643066 366.13808594 199.18394531 366.99389648 199.59350586 C378.60054468 205.26958834 389.75423261 212.05037828 399.60180664 220.45141602 C400.42036133 221.14879883 401.23891602 221.84618164 402.08227539 222.56469727 C417.29397557 235.88931815 431.65728721 254.01088088 433.98071289 274.84985352 C434.34780267 282.80086189 433.94428639 288.09963933 429.60180664 294.88891602 C425.63884182 300.91463526 425.63884182 300.91463526 424.92211914 307.90844727 C426.07814617 312.23358289 427.69377267 316.40783157 429.46557617 320.51733398 C431.50952641 325.40367146 432.07730938 329.14347843 431.60180664 334.45141602 C429.34737506 339.64760588 424.66313089 343.36017148 420.47680664 347.01391602 C415.39373342 351.47691554 411.98910339 354.90119577 411.22680664 361.88891602 C411.50501429 365.48991193 411.50501429 365.48991193 412.60180664 369.01391602 C414.42918268 375.81655675 415.4199055 384.26974301 411.85180664 390.51391602 C407.9321292 392.8506468 403.90917567 394.53184575 399.67211914 396.21313477 C390.35872068 399.96930183 385.26256065 404.12829546 380.22680664 412.82641602 C378.28089893 420.99922839 379.71736636 427.15043049 383.60180664 434.45141602 C385.46599479 437.39189888 387.50894102 440.17051067 389.60180664 442.95141602 C390.76120217 444.52914334 391.92004306 446.10727837 393.07836914 447.68579102 C394.25271951 449.2744279 395.42719679 450.86297098 396.60180664 452.45141602 C417.84135069 481.26136713 417.84135069 481.26136713 416.60180664 496.45141602 C415.3534964 502.13270198 413.03762209 505.59926049 408.60180664 509.45141602 C408.27180664 509.78141602 407.94180664 510.11141602 407.60180664 510.45141602 C402.65974636 511.0583357 399.6372057 510.92216104 395.47680664 508.07641602 C387.41267289 501.11450615 384.09293271 491.11577274 380.66430664 481.32641602 C379.79611121 478.9321339 378.92502467 476.53889812 378.05102539 474.14672852 C377.63256348 472.99849609 377.21410156 471.85026367 376.78295898 470.66723633 C371.80962027 455.25731888 371.80962027 455.25731888 360.60180664 444.45141602 C354.72439931 443.10250286 351.97655703 444.56634942 346.91430664 447.70141602 C344.17225353 449.55855184 341.75713312 451.29272506 339.43774414 453.66235352 C335.10321233 456.39681022 330.92960282 455.87068091 325.91430664 455.82641602 C317.33805483 455.98681103 311.22751809 456.54589059 304.60180664 462.45141602 C303.4687207 463.40081055 303.4687207 463.40081055 302.31274414 464.36938477 C300.91769029 465.5647931 299.54201594 466.7835578 298.19555664 468.03344727 C294.33113465 471.47164624 289.86732066 470.85089151 284.92602539 470.76391602 C279.94194758 470.29537756 276.9819844 469.1942738 273.60180664 465.45141602 C271.85109116 462.56871181 270.23777112 459.65880583 268.65991211 456.68066406 C265.5368842 450.94204372 262.02832062 447.90842951 256.60180664 444.45141602 C226.20613016 424.51487293 213.90426118 388.85268105 199.55004883 356.79663086 C198.26497831 353.92704732 196.97400557 351.06025437 195.67700195 348.19604492 C184.1385147 322.70643413 173.92944297 296.82752801 164.60180664 270.45141602 C162.51698191 272.53624075 163.39090795 277.06406856 163.35571289 279.94360352 C163.32431845 281.76530402 163.29264955 283.58699981 163.26074219 285.40869141 C163.24538422 286.37372589 163.23002625 287.33876038 163.21420288 288.33303833 C161.92902664 365.43339432 161.92902664 365.43339432 150.60180664 381.45141602 C146.26771009 385.38482567 146.26771009 385.38482567 143.10180664 385.70141602 C138.04802018 383.17452279 136.31012156 378.47049164 134.50415039 373.32250977 C131.60866176 363.29288946 130.21879767 353.06432643 128.89916992 342.7265625 C128.64049736 340.74744131 128.34865431 338.77271084 128.05102539 336.79907227 C127.56325533 333.16412497 127.28724493 329.54879351 127.10180664 325.88891602 C127.06120117 325.12095703 127.0205957 324.35299805 126.97875977 323.56176758 C126.68021661 317.37733135 126.50552828 311.19155351 126.35180664 305.00219727 C126.33081909 304.16172348 126.30983154 303.32124969 126.28820801 302.45530701 C126.1828803 298.17606451 126.08432985 293.89678069 125.99438477 289.6171875 C125.95733048 288.0046374 125.92022325 286.39208853 125.88305664 284.77954102 C125.86952148 284.04467972 125.85598633 283.30981842 125.84204102 282.5526886 C125.73529796 278.09677534 125.31252337 273.84088308 124.60180664 269.45141602 C124.31160645 270.33361816 124.02140625 271.21582031 123.72241211 272.12475586 C112.93007159 304.73721608 99.98464893 336.07360295 85.49693298 367.20794678 C83.33204679 371.8626722 81.19982424 376.53104096 79.08618164 381.20922852 C67.43588936 406.92016009 56.01609497 430.12579928 31.36352539 445.52954102 C25.21729186 449.80669362 21.79269312 455.00460811 18.17211914 461.36743164 C15.31757192 466.08253197 12.66923201 468.19983566 7.60180664 470.45141602 C2.44968195 471.40620206 -2.93879353 471.65232697 -7.73413086 469.31079102 C-9.75036034 467.79662658 -11.5638053 466.18019964 -13.39819336 464.45141602 C-14.75749027 463.34844366 -16.13259885 462.26465777 -17.52319336 461.20141602 C-18.12389648 460.72188477 -18.72459961 460.24235352 -19.34350586 459.74829102 C-24.30191488 456.61864882 -28.83925984 456.30817943 -34.53051758 456.3269043 C-43.35117392 456.32525896 -48.93159197 455.81917184 -55.50366211 449.39672852 C-56.12885742 448.75477539 -56.75405273 448.11282227 -57.39819336 447.45141602 C-61.89784123 444.62810754 -65.08530761 443.7873053 -70.39819336 444.45141602 C-78.16030225 448.56076778 -81.10576203 454.49732003 -84.11303711 462.33813477 C-84.61946495 463.62371025 -84.61946495 463.62371025 -85.13612366 464.93525696 C-86.21094341 467.66664375 -87.27411632 470.40235806 -88.33569336 473.13891602 C-101.05865989 505.78164928 -101.05865989 505.78164928 -110.39819336 510.45141602 C-113.5072033 510.99860176 -116.29777477 511.08192131 -119.39819336 510.45141602 C-123.17532848 507.77163805 -125.02442305 504.35186267 -126.77319336 500.13891602 C-129.50992043 483.99222632 -121.83978687 472.9706619 -112.85864258 460.27514648 C-110.11424494 456.43927404 -107.34290653 452.62328567 -104.56616211 448.81079102 C-101.74944174 444.94194024 -98.95725132 441.0579109 -96.21069336 437.13891602 C-95.51588867 436.1527832 -94.82108398 435.16665039 -94.10522461 434.15063477 C-90.23339288 428.02835622 -89.45723707 422.59680287 -90.39819336 415.45141602 C-92.90919386 408.26591906 -97.85515367 402.83414331 -104.58740234 399.30322266 C-107.69056668 397.93267219 -110.8342004 396.68499569 -113.98999023 395.44165039 C-118.61499483 393.52718585 -121.88367705 392.02023212 -124.39819336 387.45141602 C-125.51547221 379.61152712 -124.29747352 372.04853666 -122.39819336 364.45141602 C-121.50367069 359.08427999 -123.39418657 356.08922562 -126.41381836 351.81860352 C-129.32947788 348.34047424 -132.70037927 345.48016081 -136.11694336 342.50610352 C-140.1456431 338.87751437 -142.25476593 336.38563733 -142.67163086 330.76391602 C-142.59158422 326.21009365 -141.18198255 322.64904076 -139.39819336 318.51391602 C-135.87308642 310.20741457 -135.87308642 310.20741457 -136.39819336 301.45141602 C-138.02531455 298.18895585 -139.80522314 295.12406036 -141.76928711 292.05297852 C-146.09954249 285.13703107 -145.28614328 275.07780477 -143.78491211 267.25610352 C-139.36204524 252.95485117 -131.44020104 241.31045094 -121.39819336 230.45141602 C-120.75366211 229.72567383 -120.10913086 228.99993164 -119.44506836 228.25219727 C-104.3676684 212.09315774 -81.75487178 200.45015786 -61.39819336 192.45141602 C-62.38924072 192.37624756 -63.38028809 192.3010791 -64.40136719 192.22363281 C-134.62448969 186.84966843 -134.62448969 186.84966843 -155.89819336 164.43188477 C-165.29454321 153.22967392 -171.23104246 139.81177014 -175.52319336 125.95141602 C-175.75280762 125.2243042 -175.98242188 124.49719238 -176.21899414 123.74804688 C-181.74775239 105.01431912 -183.63334483 85.43971072 -185.67724609 66.09350586 C-187.59451133 48.12373673 -190.87864477 31.2335422 -197.21069336 14.26391602 C-197.55269775 13.3394165 -197.89470215 12.41491699 -198.24707031 11.46240234 C-201.78757779 2.10355 -206.19625762 -6.63329674 -210.95336914 -15.42163086 C-230.30109795 -51.21409496 -230.30109795 -51.21409496 -225.73803711 -69.14233398 C-222.04432927 -78.48053907 -215.57874927 -84.23770765 -206.57006836 -88.36108398 C-140.09337968 -113.24890832 -46.38303179 -39.27264235 0 0 Z " fill="#121212" transform="translate(367.398193359375,301.548583984375)"/>
<path d="M0 0 C1.32 0.33 2.64 0.66 4 1 C0.04 8.59 -3.92 16.18 -8 24 C-8.66 24 -9.32 24 -10 24 C-9.54803484 17.81218608 -7.44359034 13.43479315 -4.4375 8.0625 C-4.01275391 7.28326172 -3.58800781 6.50402344 -3.15039062 5.70117188 C-2.10987146 3.79550195 -1.05625582 1.89699278 0 0 Z " fill="#121212" transform="translate(553,326)"/>
<path d="M0 0 C0.99 0.33 1.98 0.66 3 1 C2.52343588 2.79236067 2.04366502 4.58386897 1.5625 6.375 C1.29566406 7.37273437 1.02882813 8.37046875 0.75390625 9.3984375 C0 12 0 12 -1 14 C-1.99 14 -2.98 14 -4 14 C-4.33 14.66 -4.66 15.32 -5 16 C-3.90301833 10.30860098 -2.45946923 5.25432063 0 0 Z " fill="#0B0B0B" transform="translate(526,387)"/>
<path d="M0 0 C0.66 0 1.32 0 2 0 C2.70365602 1.5552912 3.38729378 3.11964827 4.0625 4.6875 C4.44535156 5.55761719 4.82820313 6.42773438 5.22265625 7.32421875 C6.0935848 10.32213864 5.85006226 12.03280153 5 15 C2.91806813 12.91806813 2.03424616 11.28020285 0.8125 8.625 C0.44769531 7.85414063 0.08289063 7.08328125 -0.29296875 6.2890625 C-1.08442558 3.72666635 -0.89234179 2.48946307 0 0 Z " fill="#141414" transform="translate(482,350)"/>
<path d="M0 0 C2.836543 3.37683691 4.54128372 6.84265861 6 11 C5.6875 13.9375 5.6875 13.9375 5 16 C2.05766405 14.52883203 1.66202197 12.17404609 0.59765625 9.2109375 C-0.26387145 6.02384809 -0.20529942 3.28479071 0 0 Z " fill="#0A0A0A" transform="translate(487,360)"/>
<path d="M0 0 C-0.33 0.99 -0.66 1.98 -1 3 C-2.258125 3.020625 -3.51625 3.04125 -4.8125 3.0625 C-5.52019531 3.07410156 -6.22789062 3.08570313 -6.95703125 3.09765625 C-9 3 -9 3 -12 2 C-12 2.66 -12 3.32 -12 4 C-13.65 4 -15.3 4 -17 4 C-17 3.01 -17 2.02 -17 1 C-11.30494264 0.3583034 -5.73266804 -0.12462322 0 0 Z " fill="#1A1A1B" transform="translate(837,210)"/>
<path d="M0 0 C3.85025879 0.60355408 6.86101159 1.76772603 10.3125 3.5625 C11.19550781 4.01753906 12.07851563 4.47257812 12.98828125 4.94140625 C13.65214844 5.29074219 14.31601562 5.64007813 15 6 C11.37789769 7.31712811 9.32755223 6.68301982 5.8125 5.25 C4.93207031 4.90453125 4.05164063 4.5590625 3.14453125 4.203125 C1 3 1 3 0 0 Z " fill="#1A191A" transform="translate(727,499)"/>
<path d="M0 0 C-3.62535821 3.17218843 -7.51150278 4.42902597 -12 6 C-12.33 5.01 -12.66 4.02 -13 3 C-9.39091002 -0.60908998 -4.88215348 -0.11353845 0 0 Z " fill="#F1F1F1" transform="translate(308,493)"/>
<path d="M0 0 C0.66 0.33 1.32 0.66 2 1 C1.39301257 5.12751449 -0.03810791 8.3321148 -2 12 C-2.66 12 -3.32 12 -4 12 C-3.5317879 7.22423661 -2.75668002 3.95523655 0 0 Z " fill="#080808" transform="translate(547,338)"/>
<path d="M0 0 C0.33 0 0.66 0 1 0 C1.05437607 1.58294782 1.09296271 3.16644256 1.125 4.75 C1.14820313 5.63171875 1.17140625 6.5134375 1.1953125 7.421875 C0.98720489 10.16889547 0.54477419 11.72887503 -1 14 C-1.99 14.33 -2.98 14.66 -4 15 C-3.79503906 14.25234375 -3.59007812 13.5046875 -3.37890625 12.734375 C-3.10949219 11.74953125 -2.84007812 10.7646875 -2.5625 9.75 C-2.29566406 8.77546875 -2.02882813 7.8009375 -1.75390625 6.796875 C-1.14455416 4.53627347 -0.55761745 2.27377991 0 0 Z " fill="#ECECEC" transform="translate(492,567)"/>
<path d="M0 0 C0.99 0 1.98 0 3 0 C3.05437607 1.58294782 3.09296271 3.16644256 3.125 4.75 C3.14820313 5.63171875 3.17140625 6.5134375 3.1953125 7.421875 C2.99139502 10.1135858 2.36551721 11.69904974 1 14 C-0.04976964 10.85069107 -0.10131595 8.61185544 -0.0625 5.3125 C-0.05347656 4.31863281 -0.04445313 3.32476563 -0.03515625 2.30078125 C-0.02355469 1.54152344 -0.01195312 0.78226563 0 0 Z " fill="#1B1C1C" transform="translate(781,788)"/>
<path d="M0 0 C0.99 0 1.98 0 3 0 C3.33 3.96 3.66 7.92 4 12 C3.67 11.34 3.34 10.68 3 10 C2.34 10 1.68 10 1 10 C-0.1577506 6.52674819 -0.06866652 3.63932552 0 0 Z " fill="#E4E4E5" transform="translate(778,660)"/>
<path d="M0 0 C2.25998595 3.59462331 2.20868087 6.56595675 2.125 10.75 C2.10695313 11.92046875 2.08890625 13.0909375 2.0703125 14.296875 C2.03550781 15.63492188 2.03550781 15.63492188 2 17 C1.67 17 1.34 17 1 17 C-0.88341198 10.90660831 -1.0748291 6.27467799 0 0 Z " fill="#1A1A1A" transform="translate(881,232)"/>
<path d="M0 0 C2.64 0 5.28 0 8 0 C8 0.66 8 1.32 8 2 C8.99 2 9.98 2 11 2 C10 4 10 4 8 5 C6.0546875 4.44140625 6.0546875 4.44140625 3.875 3.5625 C3.15054688 3.27503906 2.42609375 2.98757813 1.6796875 2.69140625 C0.84824219 2.34916016 0.84824219 2.34916016 0 2 C0 1.34 0 0.68 0 0 Z " fill="#E1E1E1" transform="translate(717,493)"/>
<path d="M0 0 C2.15546298 3.23319447 2.68074747 5.16896958 3 9 C2.01 10.485 2.01 10.485 1 12 C0.34 12 -0.32 12 -1 12 C-1.14285714 3.42857143 -1.14285714 3.42857143 0 0 Z " fill="#E3E3E4" transform="translate(531,569)"/>
<path d="M0 0 C0.99 0 1.98 0 3 0 C3.33 3.3 3.66 6.6 4 10 C1 8 1 8 0.48828125 6.0546875 C0.32552083 4.03645833 0.16276042 2.01822917 0 0 Z " fill="#1B1B1B" transform="translate(797,569)"/>
<path d="M0 0 C3.3 0 6.6 0 10 0 C10.33 0.99 10.66 1.98 11 3 C7.7 3 4.4 3 1 3 C0.67 2.01 0.34 1.02 0 0 Z " fill="#1D1C1D" transform="translate(842,210)"/>
<path d="M0 0 C1.4370809 -0.05422947 2.87475462 -0.09289723 4.3125 -0.125 C5.11300781 -0.14820313 5.91351563 -0.17140625 6.73828125 -0.1953125 C9 0 9 0 12 2 C11 3 11 3 8.71484375 3.09765625 C7.34005859 3.08025391 7.34005859 3.08025391 5.9375 3.0625 C5.01839844 3.05347656 4.09929687 3.04445313 3.15234375 3.03515625 C2.44207031 3.02355469 1.73179687 3.01195312 1 3 C0.67 2.01 0.34 1.02 0 0 Z " fill="#1F201F" transform="translate(279,489)"/>
<path d="M0 0 C0.66 0 1.32 0 2 0 C1.25 7.625 1.25 7.625 -1 11 C-1.02688151 9.35425434 -1.04634123 7.70838587 -1.0625 6.0625 C-1.07410156 5.14597656 -1.08570313 4.22945313 -1.09765625 3.28515625 C-1 1 -1 1 0 0 Z " fill="#1B1B1B" transform="translate(491,427)"/>
<path d="M0 0 C1.32 0 2.64 0 4 0 C2.8141763 3.37503669 1.72426311 5.64722731 -1 8 C-1.93065133 5.39417629 -2.14917407 4.35801776 -1.0625 1.75 C-0.711875 1.1725 -0.36125 0.595 0 0 Z " fill="#0D0D0D" transform="translate(561,312)"/>
<path d="M0 0 C0.99 0.33 1.98 0.66 3 1 C2.34 3.64 1.68 6.28 1 9 C-1.15341979 6.84658021 -1.64111965 5.96076291 -2 3 C-1.34 2.01 -0.68 1.02 0 0 Z " fill="#F1F1F1" transform="translate(491,450)"/>
<path d="M0 0 C1.98 0.495 1.98 0.495 4 1 C2.68 3.31 1.36 5.62 0 8 C-0.33 8 -0.66 8 -1 8 C-1.125 2.25 -1.125 2.25 0 0 Z " fill="#0C0B0B" transform="translate(553,326)"/>
<path d="M0 0 C1.485 0.99 1.485 0.99 3 2 C3.6875 5.625 3.6875 5.625 4 9 C1.4375 6.75 1.4375 6.75 -1 4 C-0.8125 1.6875 -0.8125 1.6875 0 0 Z " fill="#0B0B0A" transform="translate(452,298)"/>
<path d="M0 0 C0.99 0.33 1.98 0.66 3 1 C3.625 2.8125 3.625 2.8125 4 5 C4.185625 5.7425 4.37125 6.485 4.5625 7.25 C4.706875 7.8275 4.85125 8.405 5 9 C4.01 9 3.02 9 2 9 C1.34 6.03 0.68 3.06 0 0 Z " fill="#191919" transform="translate(173,321)"/>
<path d="M0 0 C1.32 0 2.64 0 4 0 C3.34 1.32 2.68 2.64 2 4 C1.01 4 0.02 4 -1 4 C-1.66 4.66 -2.32 5.32 -3 6 C-2.42655063 3.13275314 -2.1385485 2.1385485 0 0 Z " fill="#060606" transform="translate(576,292)"/>
<path d="M0 0 C0.99 0 1.98 0 3 0 C2.67 2.64 2.34 5.28 2 8 C1.01 7.34 0.02 6.68 -1 6 C-0.67 4.02 -0.34 2.04 0 0 Z " fill="#181919" transform="translate(241,784)"/>
<path d="M0 0 C1.0326802 2.78823655 1.04509293 3.8677274 0.0625 6.75 C-0.288125 7.4925 -0.63875 8.235 -1 9 C-1.66 8.67 -2.32 8.34 -3 8 C-2.74438677 5.6568787 -2.40729228 3.32156597 -2 1 C-1.34 0.67 -0.68 0.34 0 0 Z " fill="#1D1C1D" transform="translate(247,665)"/>
<path d="M0 0 C1.10844919 3.32534757 0.84454356 5.62182575 0 9 C-0.33 8.34 -0.66 7.68 -1 7 C-1.66 7 -2.32 7 -3 7 C-1.125 1.125 -1.125 1.125 0 0 Z " fill="#1B1C1B" transform="translate(543,346)"/>
</svg>
